<?xml version="1.0" encoding="UTF-8" standalone="no"?>
<!DOCTYPE svg PUBLIC "-//W3C//DTD SVG 1.1//EN" "http://www.w3.org/Graphics/SVG/1.1/DTD/svg11.dtd">
<svg width="100%" height="100%" viewBox="0 0 39 39" version="1.1" xmlns="http://www.w3.org/2000/svg" xmlns:xlink="http://www.w3.org/1999/xlink" xml:space="preserve" xmlns:serif="http://www.serif.com/" style="fill-rule:evenodd;clip-rule:evenodd;stroke-linejoin:round;stroke-miterlimit:1.41421;">
    <g transform="matrix(1,0,0,0.679241,-996.325,-3164.02)">
        <g transform="matrix(1.6227,0,0,2.38898,904.607,4491.87)">
            <path d="M68.51,70.692C63.784,70.692 59.596,73.735 58.136,78.229C56.676,82.723 58.275,87.647 62.098,90.424C65.922,93.203 71.098,93.203 74.922,90.424C78.745,87.647 80.344,82.723 78.884,78.229C77.424,73.735 73.236,70.692 68.51,70.692M79.911,77.895C81.516,82.835 79.758,88.246 75.556,91.298C71.355,94.351 65.665,94.351 61.464,91.298C57.262,88.246 55.504,82.835 57.109,77.895C58.714,72.956 63.317,69.612 68.51,69.612C73.703,69.612 78.306,72.956 79.911,77.895" style="fill:white;fill-rule:nonzero;"/>
        </g>
        <g transform="matrix(0.835263,0,0,1.29263,-24.8754,-936.239)">
            <path d="M1252.54,4346.52C1252.71,4346.52 1252.87,4346.52 1253.04,4346.52C1253.26,4346.52 1253.48,4346.52 1253.7,4346.52C1253.96,4346.53 1254.3,4346.37 1254.41,4345.99C1254.44,4345.9 1254.45,4345.81 1254.45,4345.72C1254.45,4344.99 1254.45,4344.27 1254.45,4343.54C1254.45,4343.48 1254.44,4343.42 1254.43,4343.36C1254.4,4343.17 1254.31,4343.01 1254.16,4342.89C1254.01,4342.78 1253.84,4342.73 1253.66,4342.73C1252.92,4342.73 1252.18,4342.73 1251.44,4342.73C1251.41,4342.73 1251.39,4342.73 1251.37,4342.73C1250.95,4342.76 1250.68,4343.08 1250.65,4343.42C1250.65,4343.48 1250.65,4343.53 1250.65,4343.58C1250.65,4344.28 1250.65,4344.98 1250.65,4345.68C1250.65,4345.74 1250.65,4345.8 1250.66,4345.86C1250.68,4346.08 1250.79,4346.25 1250.96,4346.38C1251.09,4346.48 1251.25,4346.53 1251.42,4346.53C1251.79,4346.52 1252.17,4346.52 1252.54,4346.52M1243.05,4350.33C1243.06,4352.49 1244.82,4354.13 1246.86,4354.13C1248.93,4354.12 1250.65,4352.43 1250.65,4350.32C1250.65,4348.27 1249,4346.52 1246.84,4346.53C1244.74,4346.53 1243.06,4348.23 1243.05,4350.33M1239.25,4348.81C1239.25,4348.89 1239.25,4348.95 1239.25,4349.01C1239.25,4351.69 1239.25,4354.37 1239.25,4357.05C1239.25,4357.1 1239.25,4357.14 1239.25,4357.19C1239.28,4357.65 1239.63,4357.91 1239.97,4357.92C1240.02,4357.92 1240.06,4357.92 1240.11,4357.92C1244.61,4357.92 1249.1,4357.92 1253.6,4357.92C1253.65,4357.92 1253.71,4357.92 1253.77,4357.92C1254.12,4357.88 1254.39,4357.62 1254.44,4357.27C1254.45,4357.19 1254.45,4357.11 1254.45,4357.03C1254.45,4354.36 1254.45,4351.69 1254.45,4349.02C1254.45,4348.98 1254.45,4348.94 1254.45,4348.9C1254.45,4348.87 1254.44,4348.84 1254.43,4348.81C1254.2,4348.8 1252.86,4348.8 1252.74,4348.82C1253.17,4350.67 1252.87,4352.38 1251.75,4353.92C1250.63,4355.47 1248.91,4356.31 1247.17,4356.4C1246.88,4356.41 1246.58,4356.41 1246.29,4356.38C1246,4356.35 1245.71,4356.31 1245.42,4356.24C1245.14,4356.17 1244.86,4356.08 1244.59,4355.97C1244.32,4355.86 1244.06,4355.74 1243.81,4355.59C1243.56,4355.44 1243.32,4355.28 1243.09,4355.1C1242.86,4354.92 1242.64,4354.72 1242.44,4354.51C1242.24,4354.29 1242.05,4354.07 1241.88,4353.83C1241.71,4353.59 1241.56,4353.34 1241.43,4353.07C1241.3,4352.81 1241.18,4352.54 1241.09,4352.26C1241,4351.99 1240.92,4351.71 1240.87,4351.43C1240.82,4351.14 1240.79,4350.85 1240.78,4350.56C1240.77,4350.26 1240.78,4349.97 1240.81,4349.68C1240.84,4349.39 1240.9,4349.1 1240.96,4348.81L1239.25,4348.81ZM1256.72,4350.34C1256.72,4352.86 1256.72,4355.39 1256.72,4357.91C1256.73,4358.22 1256.68,4358.51 1256.56,4358.78C1256.21,4359.58 1255.6,4360.05 1254.74,4360.19C1254.68,4360.2 1254.63,4360.2 1254.57,4360.2C1254.51,4360.2 1254.45,4360.2 1254.39,4360.2C1249.36,4360.2 1244.34,4360.2 1239.31,4360.2C1239.07,4360.2 1238.83,4360.18 1238.6,4360.11C1237.85,4359.89 1237.15,4359.24 1237,4358.28C1236.98,4358.14 1236.97,4357.99 1236.97,4357.85C1236.97,4356.43 1236.97,4355.01 1236.97,4353.59C1236.97,4350 1236.97,4346.41 1236.97,4342.82C1236.97,4342.52 1237,4342.23 1237.11,4341.95C1237.43,4341.14 1238.02,4340.65 1238.88,4340.48C1239.01,4340.45 1239.14,4340.45 1239.27,4340.45C1239.45,4340.44 1239.63,4340.45 1239.81,4340.45C1244.66,4340.45 1249.51,4340.45 1254.36,4340.45C1254.66,4340.45 1254.97,4340.48 1255.25,4340.6C1256.08,4340.93 1256.56,4341.54 1256.71,4342.42C1256.73,4342.54 1256.72,4342.66 1256.72,4342.77C1256.72,4345.3 1256.72,4347.82 1256.72,4350.34" style="fill:white;fill-rule:nonzero;"/>
        </g>
    </g>
</svg>
