<?xml version="1.0" encoding="UTF-8" standalone="no"?>
<!DOCTYPE svg PUBLIC "-//W3C//DTD SVG 1.1//EN" "http://www.w3.org/Graphics/SVG/1.1/DTD/svg11.dtd">
<svg width="100%" height="100%" viewBox="0 0 36 36" version="1.1" xmlns="http://www.w3.org/2000/svg" xmlns:xlink="http://www.w3.org/1999/xlink" xml:space="preserve" xmlns:serif="http://www.serif.com/" style="fill-rule:evenodd;clip-rule:evenodd;stroke-linejoin:round;stroke-miterlimit:1.41421;">
    <g transform="matrix(1,0,0,0.679241,-978.108,-99.0695)">
        <g transform="matrix(1.46798,0,0,2.16121,728.946,-4.59372)">
            <path d="M181.72,70.692C176.994,70.692 172.806,73.735 171.346,78.229C169.886,82.723 171.486,87.647 175.308,90.424C179.132,93.203 184.308,93.203 188.132,90.424C191.955,87.647 193.554,82.723 192.094,78.229C190.634,73.735 186.446,70.692 181.72,70.692M193.121,77.895C194.726,82.835 192.968,88.246 188.766,91.298C184.565,94.351 178.875,94.351 174.674,91.298C170.472,88.246 168.714,82.835 170.319,77.895C171.924,72.957 176.527,69.612 181.72,69.612C186.914,69.612 191.516,72.957 193.121,77.895" style="fill:white;fill-rule:nonzero;"/>
        </g>
        <g transform="matrix(0.0399168,0,0,0.0587668,985.796,156.891)">
            <path d="M490.24,113.92C476.352,89.216 461.28,84.672 430.592,82.944C399.936,80.864 322.848,80 256.064,80C189.152,80 112.032,80.864 81.408,82.912C50.784,84.672 35.68,89.184 21.664,113.92C7.36,138.592 0,181.088 0,255.904L0,256.16C0,330.656 7.36,373.472 21.664,397.888C35.68,422.592 50.752,427.072 81.376,429.152C112.032,430.944 189.152,432 256.064,432C322.848,432 399.936,430.944 430.624,429.184C461.312,427.104 476.384,422.624 490.272,397.92C504.704,373.504 512,330.688 512,256.192C512,256.192 512,256.096 512,256.032C512,256.032 512,255.968 512,255.936C512,181.088 504.704,138.592 490.24,113.92ZM192,352L192,160L352,256L192,352Z" style="fill:white;fill-rule:nonzero;"/>
        </g>
    </g>
</svg>
