<?xml version="1.0" encoding="UTF-8" standalone="no"?>
<!DOCTYPE svg PUBLIC "-//W3C//DTD SVG 1.1//EN" "http://www.w3.org/Graphics/SVG/1.1/DTD/svg11.dtd">
<svg width="100%" height="100%" viewBox="0 0 20 20" version="1.1" xmlns="http://www.w3.org/2000/svg" xmlns:xlink="http://www.w3.org/1999/xlink" xml:space="preserve" xmlns:serif="http://www.serif.com/" style="fill-rule:evenodd;clip-rule:evenodd;stroke-linejoin:round;stroke-miterlimit:1.41421;">
    <g transform="matrix(0.0385348,0,0,0.0385348,4.61167e-06,-0.00188821)">
        <path d="M506.791,186.581C488.901,131.528 429.557,101.294 374.508,119.178C367.236,121.541 359.874,124.809 352.598,128.858C354.201,120.689 355.034,112.676 355.034,105.03C355.034,46.583 314.647,0.049 257.052,0.049C199.373,0.049 156.966,46.686 156.966,105.03C156.966,112.675 157.799,120.688 159.402,128.858C152.126,124.81 144.764,121.541 137.492,119.178C82.446,101.291 23.098,131.528 5.209,186.581C-12.933,242.419 17.935,304.602 72.612,322.369C79.884,324.732 87.76,326.414 96.026,327.416C89.927,333.084 84.545,339.077 80.05,345.262C46.025,392.094 56.444,457.876 103.274,491.9C150.082,525.91 210.879,515.659 245.014,468.675C249.509,462.489 253.543,455.517 257.051,447.965C260.558,455.518 264.593,462.489 269.088,468.675C303.269,515.723 362.016,525.837 408.724,491.9C455.555,457.875 465.974,392.093 431.949,345.262C427.456,339.076 422.071,333.084 415.973,327.415C424.237,326.414 432.118,324.73 439.39,322.369C494.066,304.603 524.933,242.42 506.791,186.581ZM257.052,30.044C296.446,30.044 325.039,61.58 325.039,105.03C325.039,124.586 317.386,148.697 304.568,169.527C303.017,172.048 302.3,174.857 302.346,177.626L286.73,204.654C282.06,202.633 276.95,201.066 271.849,200.027L271.849,138.53C271.849,130.248 265.334,123.533 257.052,123.533C248.77,123.533 242.055,130.248 242.055,138.53L242.055,200.028C236.834,201.092 231.816,202.714 227.048,204.803L209.613,176.247C209.438,173.933 208.725,171.629 207.431,169.527C194.613,148.697 186.96,124.586 186.96,105.03C186.961,62.281 217.093,30.044 257.052,30.044ZM81.88,293.843C43.341,281.32 20.843,235.529 33.735,195.85C46.513,156.526 88.897,134.929 128.224,147.704C144.368,152.95 161.995,164.75 176.736,179.96L202.491,222.144C198.397,226.491 194.816,231.323 191.844,236.548L133.317,217.532C125.433,214.971 116.978,219.284 114.419,227.16C111.858,235.038 116.171,243.498 124.047,246.058L182.552,265.068C181.874,271.088 181.92,276.49 182.589,282.232L145.129,295.301C122.678,300.014 99.332,299.513 81.88,293.843ZM242.053,387.296C240.114,411.528 232.169,435.328 220.75,451.045C196.344,484.635 154.281,491.884 120.905,467.634C87.455,443.33 80.014,396.344 104.317,362.892C124.174,335.559 158.665,323.14 161.281,321.435L191.993,310.72C194.759,315.536 198.03,320.026 201.757,324.095L165.582,373.887C160.713,380.588 162.199,389.967 168.899,394.835C175.596,399.702 184.976,398.22 189.847,391.518L226.012,341.739C231.086,344.056 236.452,345.841 242.052,346.982L242.052,387.296L242.053,387.296ZM257.052,318.497C232.244,318.497 212.06,298.314 212.06,273.505C212.06,248.696 232.243,228.513 257.052,228.513C281.86,228.513 302.044,248.696 302.044,273.505C302.044,298.314 281.86,318.497 257.052,318.497ZM391.094,467.634C356.627,492.677 316.963,483.538 293.353,451.045C281.934,435.328 273.789,411.528 271.848,387.297L271.848,346.983C277.448,345.841 283.014,344.058 288.088,341.74L324.253,391.519C329.122,398.22 338.501,399.704 345.201,394.836C351.902,389.967 353.388,380.589 348.518,373.888L312.344,324.097C316.039,320.061 319.287,315.614 322.038,310.843L349.992,320.914C353.438,323.469 387.535,335.16 407.681,362.892C431.987,396.344 424.545,443.33 391.094,467.634ZM368.012,295.523L331.496,282.367C332.195,276.467 332.221,271.029 331.55,265.067L390.055,246.057C397.932,243.497 402.243,235.037 399.683,227.159C397.123,219.281 388.662,214.97 380.785,217.531L322.258,236.547C319.234,231.232 315.58,226.323 311.396,221.918L336.165,179.05C350.721,164.283 367.956,152.844 383.775,147.704C423.096,134.929 465.485,156.525 478.264,195.848C491.156,235.528 468.658,281.319 430.119,293.842L430.12,293.842C412.962,299.417 390.11,299.983 368.012,295.523Z" style="fill:white;fill-rule:nonzero;"/>
    </g>
</svg>
