<?xml version="1.0" encoding="UTF-8" standalone="no"?>
<!DOCTYPE svg PUBLIC "-//W3C//DTD SVG 1.1//EN" "http://www.w3.org/Graphics/SVG/1.1/DTD/svg11.dtd">
<svg width="100%" height="100%" viewBox="0 0 36 36" version="1.1" xmlns="http://www.w3.org/2000/svg" xmlns:xlink="http://www.w3.org/1999/xlink" xml:space="preserve" xmlns:serif="http://www.serif.com/" style="fill-rule:evenodd;clip-rule:evenodd;stroke-linejoin:round;stroke-miterlimit:1.41421;">
    <g transform="matrix(1,0,0,0.679241,-878.307,-99.0695)">
        <g transform="matrix(1.46798,0,0,2.16121,795.334,-4.59372)">
            <path d="M68.51,70.692C63.784,70.692 59.596,73.735 58.136,78.229C56.676,82.723 58.275,87.647 62.098,90.424C65.922,93.203 71.098,93.203 74.922,90.424C78.745,87.647 80.344,82.723 78.884,78.229C77.424,73.735 73.236,70.692 68.51,70.692M79.911,77.895C81.516,82.835 79.758,88.246 75.556,91.298C71.355,94.351 65.665,94.351 61.464,91.298C57.262,88.246 55.504,82.835 57.109,77.895C58.714,72.956 63.317,69.612 68.51,69.612C73.703,69.612 78.306,72.956 79.911,77.895" style="fill:white;fill-rule:nonzero;"/>
        </g>
        <g transform="matrix(1.46798,0,0,2.16121,795.334,-4.59372)">
            <path d="M70.14,78.154C70.465,78.142 70.79,78.151 71.116,78.151L71.25,78.151L71.25,76.459C71.077,76.442 70.895,76.417 70.713,76.408C70.38,76.393 70.046,76.377 69.712,76.384C69.202,76.395 68.72,76.519 68.298,76.821C67.815,77.169 67.55,77.657 67.449,78.233C67.407,78.47 67.396,78.717 67.39,78.959C67.381,79.339 67.389,79.717 67.389,80.097L67.389,80.24L65.77,80.24L65.77,82.13L67.379,82.13L67.379,86.879L69.346,86.879L69.346,82.137L70.95,82.137C71.032,81.508 71.112,80.886 71.196,80.239C71.067,80.239 70.952,80.238 70.836,80.239C70.38,80.241 69.333,80.239 69.333,80.239C69.333,80.239 69.337,79.302 69.348,78.896C69.364,78.34 69.694,78.17 70.14,78.154" style="fill:white;"/>
        </g>
    </g>
</svg>
