<?xml version="1.0" encoding="UTF-8" standalone="no"?>
<!DOCTYPE svg PUBLIC "-//W3C//DTD SVG 1.1//EN" "http://www.w3.org/Graphics/SVG/1.1/DTD/svg11.dtd">
<svg width="100%" height="100%" viewBox="0 0 39 39" version="1.1" xmlns="http://www.w3.org/2000/svg" xmlns:xlink="http://www.w3.org/1999/xlink" xml:space="preserve" xmlns:serif="http://www.serif.com/" style="fill-rule:evenodd;clip-rule:evenodd;stroke-linejoin:round;stroke-miterlimit:1.41421;">
    <g transform="matrix(1,0,0,0.679241,-1061.46,-3164.02)">
        <g transform="matrix(1.6227,0,0,2.38898,908.508,4491.87)">
            <path d="M106.247,70.692C101.521,70.692 97.333,73.735 95.873,78.229C94.413,82.723 96.012,87.647 99.835,90.424C103.659,93.203 108.835,93.203 112.659,90.424C116.482,87.647 118.081,82.723 116.621,78.229C115.161,73.735 110.973,70.692 106.247,70.692M117.648,77.895C119.253,82.835 117.495,88.246 113.293,91.298C109.092,94.351 103.402,94.351 99.201,91.298C94.999,88.246 93.241,82.835 94.846,77.895C96.451,72.956 101.054,69.612 106.247,69.612C111.44,69.612 116.043,72.956 117.648,77.895" style="fill:white;fill-rule:nonzero;"/>
        </g>
        <g transform="matrix(0.0403479,0,0,0.0594015,1070.58,4673.07)">
            <path id="XMLID_799_" d="M405.018,52.467C369.774,18.634 321.002,0 267.685,0C186.241,0 136.149,33.385 108.469,61.39C74.355,95.904 54.793,141.73 54.793,187.122C54.793,244.115 78.632,287.859 118.553,304.133C121.234,305.232 123.93,305.785 126.574,305.785C134.996,305.785 141.669,300.274 143.981,291.435C145.328,286.363 148.451,273.853 149.809,268.421C152.715,257.696 150.367,252.537 144.029,245.068C132.483,231.406 127.106,215.251 127.106,194.226C127.106,131.776 173.608,65.403 259.795,65.403C328.18,65.403 370.661,104.271 370.661,166.837C370.661,206.319 362.157,242.883 346.71,269.799C335.976,288.5 317.101,310.793 288.125,310.793C275.595,310.793 264.339,305.646 257.237,296.673C250.527,288.19 248.316,277.231 251.015,265.811C254.063,252.907 258.219,239.447 262.242,226.434C269.579,202.668 276.515,180.221 276.515,162.313C276.515,131.68 257.683,111.098 229.658,111.098C194.041,111.098 166.139,147.272 166.139,193.452C166.139,216.1 172.158,233.04 174.883,239.544C170.396,258.555 143.73,371.574 138.672,392.887C135.747,405.328 118.129,503.591 147.29,511.427C180.055,520.23 209.341,424.528 212.322,413.714C214.738,404.918 223.191,371.662 228.371,351.218C244.188,366.454 269.655,376.753 294.435,376.753C341.15,376.753 383.162,355.731 412.733,317.564C441.412,280.544 457.207,228.946 457.207,172.282C457.207,127.983 438.183,84.311 405.018,52.467Z" style="fill:white;fill-rule:nonzero;"/>
        </g>
    </g>
</svg>
