<?xml version="1.0" encoding="UTF-8" standalone="no"?>
<!DOCTYPE svg PUBLIC "-//W3C//DTD SVG 1.1//EN" "http://www.w3.org/Graphics/SVG/1.1/DTD/svg11.dtd">
<svg width="100%" height="100%" viewBox="0 0 36 36" version="1.1" xmlns="http://www.w3.org/2000/svg" xmlns:xlink="http://www.w3.org/1999/xlink" xml:space="preserve" xmlns:serif="http://www.serif.com/" style="fill-rule:evenodd;clip-rule:evenodd;stroke-linejoin:round;stroke-miterlimit:1.41421;">
    <g transform="matrix(1,0,0,0.679241,-928.185,-99.0695)">
        <g transform="matrix(1.46798,0,0,2.16121,789.816,-4.59372)">
            <path d="M106.247,70.692C101.521,70.692 97.333,73.735 95.873,78.229C94.413,82.723 96.012,87.647 99.835,90.424C103.659,93.203 108.835,93.203 112.659,90.424C116.482,87.647 118.081,82.723 116.621,78.229C115.161,73.735 110.973,70.692 106.247,70.692M117.648,77.895C119.253,82.835 117.495,88.246 113.293,91.298C109.092,94.351 103.402,94.351 99.201,91.298C94.999,88.246 93.241,82.835 94.846,77.895C96.451,72.956 101.054,69.612 106.247,69.612C111.44,69.612 116.043,72.956 117.648,77.895" style="fill:white;fill-rule:nonzero;"/>
        </g>
        <g transform="matrix(1.46798,0,0,2.16121,789.816,-4.59372)">
            <path d="M104.471,84.201C103.263,84.159 102.509,83.292 102.309,82.588C102.645,82.652 102.976,82.639 103.305,82.558C103.314,82.556 103.322,82.551 103.339,82.543C102.684,82.39 102.179,82.041 101.829,81.476C101.596,81.101 101.485,80.691 101.489,80.241C101.815,80.415 102.157,80.513 102.523,80.522C102.031,80.168 101.701,79.705 101.566,79.112C101.432,78.521 101.519,77.96 101.816,77.43C103.074,78.911 104.666,79.724 106.609,79.858C106.596,79.765 106.581,79.685 106.572,79.603C106.507,79.056 106.616,78.547 106.911,78.084C107.281,77.504 107.809,77.143 108.487,77.033C109.269,76.905 109.951,77.128 110.522,77.681C110.56,77.719 110.592,77.73 110.645,77.719C111.123,77.614 111.574,77.442 111.997,77.198C112.007,77.192 112.017,77.187 112.028,77.182C112.03,77.181 112.034,77.181 112.043,77.181C111.86,77.722 111.525,78.139 111.048,78.446C111.498,78.396 111.928,78.277 112.343,78.097C112.346,78.101 112.349,78.105 112.352,78.108C112.263,78.224 112.177,78.344 112.085,78.457C111.838,78.761 111.555,79.028 111.24,79.26C111.213,79.279 111.2,79.298 111.201,79.333C111.214,79.678 111.201,80.022 111.158,80.364C111.069,81.087 110.867,81.775 110.559,82.433C110.241,83.113 109.826,83.726 109.303,84.265C108.418,85.18 107.351,85.771 106.109,86.046C105.683,86.139 105.251,86.186 104.815,86.199C103.475,86.238 102.236,85.905 101.096,85.201C101.081,85.192 101.067,85.182 101.041,85.166C101.852,85.253 102.624,85.149 103.366,84.846C103.76,84.683 104.125,84.472 104.471,84.201" style="fill:white;"/>
        </g>
    </g>
</svg>
