<?xml version="1.0" encoding="UTF-8" standalone="no"?>
<!DOCTYPE svg PUBLIC "-//W3C//DTD SVG 1.1//EN" "http://www.w3.org/Graphics/SVG/1.1/DTD/svg11.dtd">
<svg width="100%" height="100%" viewBox="0 0 14 10" version="1.1" xmlns="http://www.w3.org/2000/svg" xmlns:xlink="http://www.w3.org/1999/xlink" xml:space="preserve" style="fill-rule:evenodd;clip-rule:evenodd;stroke-linejoin:round;stroke-miterlimit:1.41421;">
    <g transform="matrix(1,0,0,1,-729.84,-11.792)">
        <g transform="matrix(1,0,0,1.08691,0,0)">
            <g transform="matrix(0.0639494,0,0,0.0588359,769.385,28.4328)">
                <path d="M-548.988,-167.367L-578.338,-167.367C-587.965,-167.367 -595.769,-175.174 -595.769,-184.796L-595.769,-235.633C-595.769,-245.258 -587.965,-253.064 -578.338,-253.064L-548.986,-253.064C-547.279,-253.064 -545.638,-252.807 -544.074,-252.353L-515.462,-274.777C-512.778,-276.883 -509.118,-277.269 -506.047,-275.776C-502.976,-274.282 -501.026,-271.167 -501.026,-267.749L-501.026,-151.99L-501.028,-151.99L-501.028,-151.991C-501.028,-148.573 -502.978,-145.455 -506.049,-143.961C-507.289,-143.359 -508.627,-143.058 -509.958,-143.058C-511.919,-143.058 -513.861,-143.706 -515.464,-144.959L-544.753,-167.904C-546.082,-167.575 -547.467,-167.374 -548.988,-167.367Z" style="fill:white;"/>
                <path d="M-425.944,-143.194L-435.657,-152.91C-421.864,-167.756 -413.407,-187.625 -413.407,-209.442C-413.407,-231.685 -422.204,-251.896 -436.48,-266.835L-426.764,-276.548C-410.002,-259.119 -399.666,-235.473 -399.666,-209.442C-399.665,-183.833 -409.666,-160.532 -425.944,-143.194Z" style="fill:white;"/>
                <path d="M-459.022,-175.98C-451.078,-184.881 -446.241,-196.604 -446.241,-209.44C-446.241,-222.704 -451.407,-234.774 -459.826,-243.774L-450.11,-253.49C-439.207,-241.995 -432.497,-226.493 -432.497,-209.441C-432.497,-192.816 -438.867,-177.649 -449.29,-166.253L-459.022,-175.98Z" style="fill:white;"/>
                <path d="M-471.713,-188.673L-481.501,-198.461C-479.245,-201.545 -477.893,-205.331 -477.893,-209.44C-477.893,-213.976 -479.524,-218.139 -482.224,-221.376L-472.511,-231.089C-467.334,-225.344 -464.149,-217.766 -464.149,-209.44C-464.152,-201.542 -466.998,-194.301 -471.713,-188.673Z" style="fill:white;"/>
                <path d="M-618.379,-298.516L-618.379,-298.86L-618.109,-298.86L-618.379,-298.516Z" style="fill:white;"/>
                <g transform="matrix(1,0,0,1,-650.329,-356.034)">
                    <path d="M149.303,204.044L149.303,88.285C149.303,84.867 147.353,81.752 144.282,80.258C141.211,78.765 137.551,79.151 134.867,81.257L106.255,103.681C104.691,103.227 103.05,102.97 101.343,102.97L71.991,102.97C62.364,102.97 54.56,110.776 54.56,120.401L54.56,171.238C54.56,180.86 62.364,188.667 71.991,188.667L101.341,188.667C102.862,188.659 104.247,188.459 105.576,188.13L134.865,211.075C136.468,212.328 138.41,212.976 140.371,212.976C141.702,212.976 143.04,212.675 144.28,212.073C147.351,210.579 149.301,207.461 149.301,204.043L149.301,204.044L149.303,204.044Z" style="fill:white;"/>
                </g>
                <g transform="matrix(1,0,0,1,-650.329,-356.034)">
                    <path d="M224.385,212.84L214.672,203.124C228.465,188.278 236.922,168.409 236.922,146.592C236.922,124.349 228.125,104.138 213.849,89.199L223.565,79.486C240.327,96.915 250.663,120.561 250.663,146.592C250.664,172.201 240.663,195.502 224.385,212.84Z" style="fill:white;"/>
                </g>
                <g transform="matrix(1,0,0,1,-650.329,-356.034)">
                    <path d="M191.307,180.054C199.251,171.153 204.088,159.43 204.088,146.594C204.088,133.33 198.922,121.26 190.503,112.26L200.219,102.544C211.122,114.039 217.832,129.541 217.832,146.593C217.832,163.218 211.462,178.385 201.039,189.781L191.307,180.054Z" style="fill:white;"/>
                </g>
                <g transform="matrix(1,0,0,1,-650.329,-356.034)">
                    <path d="M178.616,167.361L168.828,157.573C171.084,154.489 172.436,150.703 172.436,146.594C172.436,142.058 170.805,137.895 168.105,134.658L177.818,124.945C182.995,130.69 186.18,138.268 186.18,146.594C186.177,154.492 183.331,161.733 178.616,167.361Z" style="fill:white;"/>
                </g>
            </g>
        </g>
    </g>
</svg>
